<svg width="377" height="384" viewBox="0 0 377 384" fill="none" xmlns="http://www.w3.org/2000/svg">
<line x1="-63.8978" y1="158.011" x2="291.56" y2="-14.5083" stroke="#FBFBFB" stroke-width="2"/>
<line x1="-35.264" y1="217.008" x2="320.194" y2="44.4888" stroke="#FBFBFB" stroke-width="2"/>
<line x1="-6.62999" y1="276.005" x2="348.828" y2="103.486" stroke="#FBFBFB" stroke-width="2"/>
<line x1="0.528209" y1="290.754" x2="355.986" y2="118.235" stroke="#FBFBFB" stroke-width="2"/>
<line x1="-85.3727" y1="113.763" x2="270.085" y2="-58.7564" stroke="#FBFBFB" stroke-width="2"/>
<line x1="-56.7394" y1="172.76" x2="298.718" y2="0.240968" stroke="#FBFBFB" stroke-width="2"/>
<line x1="-28.1053" y1="231.757" x2="327.352" y2="59.2381" stroke="#FBFBFB" stroke-width="2"/>
<line x1="-78.215" y1="128.512" x2="277.243" y2="-44.0069" stroke="#FBFBFB" stroke-width="2"/>
<line x1="-49.5809" y1="187.51" x2="305.877" y2="14.9902" stroke="#FBFBFB" stroke-width="2"/>
<line x1="-20.9469" y1="246.507" x2="334.511" y2="73.9874" stroke="#FBFBFB" stroke-width="2"/>
<line x1="-71.0565" y1="143.262" x2="284.401" y2="-29.2576" stroke="#FBFBFB" stroke-width="2"/>
<line x1="-42.4225" y1="202.259" x2="313.035" y2="29.7395" stroke="#FBFBFB" stroke-width="2"/>
<line x1="-13.7887" y1="261.256" x2="341.669" y2="88.7366" stroke="#FBFBFB" stroke-width="2"/>
<line x1="28.3673" y1="348.113" x2="383.825" y2="175.593" stroke="#FBFBFB" stroke-width="2"/>
<line x1="57.0009" y1="407.11" x2="412.458" y2="234.591" stroke="#FBFBFB" stroke-width="2"/>
<line x1="85.6349" y1="466.107" x2="441.093" y2="293.588" stroke="#FBFBFB" stroke-width="2"/>
<line x1="92.7933" y1="480.856" x2="448.251" y2="308.337" stroke="#FBFBFB" stroke-width="2"/>
<line x1="6.89247" y1="303.864" x2="362.35" y2="131.345" stroke="#FBFBFB" stroke-width="2"/>
<line x1="35.5255" y1="362.862" x2="390.983" y2="190.343" stroke="#FBFBFB" stroke-width="2"/>
<line x1="64.1596" y1="421.859" x2="419.617" y2="249.34" stroke="#FBFBFB" stroke-width="2"/>
<line x1="14.0502" y1="318.614" x2="369.508" y2="146.095" stroke="#FBFBFB" stroke-width="2"/>
<line x1="42.684" y1="377.611" x2="398.142" y2="205.092" stroke="#FBFBFB" stroke-width="2"/>
<line x1="71.318" y1="436.608" x2="426.776" y2="264.089" stroke="#FBFBFB" stroke-width="2"/>
<line x1="21.2084" y1="333.364" x2="376.666" y2="160.844" stroke="#FBFBFB" stroke-width="2"/>
<line x1="49.8424" y1="392.361" x2="405.3" y2="219.841" stroke="#FBFBFB" stroke-width="2"/>
<line x1="78.4765" y1="451.358" x2="433.934" y2="278.839" stroke="#FBFBFB" stroke-width="2"/>
</svg>
